<?xml version="1.0" encoding="UTF-8" standalone="no"?>
<svg
   xmlns:dc="http://purl.org/dc/elements/1.1/"
   xmlns:cc="http://creativecommons.org/ns#"
   xmlns:rdf="http://www.w3.org/1999/02/22-rdf-syntax-ns#"
   xmlns:svg="http://www.w3.org/2000/svg"
   xmlns="http://www.w3.org/2000/svg"
   xmlns:sodipodi="http://sodipodi.sourceforge.net/DTD/sodipodi-0.dtd"
   xmlns:inkscape="http://www.inkscape.org/namespaces/inkscape"
   width="1046.4083"
   height="100.45966"
   viewBox="0 0 276.8622 26.579958"
   version="1.1"
   id="svg16"
   inkscape:version="1.0.2 (e86c870879, 2021-01-15)"
   sodipodi:docname="logo1.svg">
  <defs
     id="defs10" />
  <sodipodi:namedview
     id="base"
     pagecolor="#ffffff"
     bordercolor="#666666"
     borderopacity="1.0"
     inkscape:pageopacity="0.0"
     inkscape:pageshadow="2"
     inkscape:zoom="1.6666534"
     inkscape:cx="450.90358"
     inkscape:cy="58.313221"
     inkscape:document-units="px"
     inkscape:current-layer="layer1"
     inkscape:document-rotation="0"
     showgrid="false"
     inkscape:snap-global="false"
     showguides="true"
     inkscape:guide-bbox="true"
     units="px"
     fit-margin-top="0"
     fit-margin-left="0"
     fit-margin-right="0"
     fit-margin-bottom="-29.9"
     inkscape:window-width="1920"
     inkscape:window-height="1009"
     inkscape:window-x="0"
     inkscape:window-y="1109"
     inkscape:window-maximized="1" />
  <metadata
     id="metadata13">
    <rdf:RDF>
      <cc:Work
         rdf:about="">
        <dc:format>image/svg+xml</dc:format>
        <dc:type
           rdf:resource="http://purl.org/dc/dcmitype/StillImage" />
        <dc:title></dc:title>
      </cc:Work>
    </rdf:RDF>
  </metadata>
  <g
     inkscape:label="Layer 1"
     inkscape:groupmode="layer"
     id="layer1"
     transform="translate(-0.00151535,0.00845326)">
    <g
       aria-label="Zephnetdotbiz"
       id="text46"
       style="font-style:normal;font-weight:normal;font-size:42.4287px;font-family:sans-serif;fill:#000000;fill-opacity:1;stroke:none;stroke-width:1.06072">
      <path
         id="path60"
         style="fill:#000000;stroke-width:1.06072"
         sodipodi:type="inkscape:offset"
         inkscape:radius="0"
         inkscape:original="M 20.878906 -0.0078125 L 12.078125 0.001953125 L 20.910156 0.001953125 C 20.896465 0.0017611208 20.892802 -0.0078125 20.878906 -0.0078125 z M 20.910156 0.001953125 C 21.825429 0.014788727 22.292969 0.44745574 22.292969 1.3183594 C 22.292969 1.5776458 22.169376 1.8943404 21.921875 2.2714844 L 7.4960938 23.875 L 20.949219 23.875 C 21.83315 23.875 22.275391 24.317241 22.275391 25.201172 C 22.275391 25.991345 21.866516 26.373218 21.160156 26.457031 L 34.376953 26.457031 C 31.904131 26.36806 29.732304 25.554653 27.914062 23.892578 C 25.922271 22.077573 24.925781 19.86253 24.925781 17.246094 C 24.925781 14.617871 25.922271 12.402829 27.914062 10.599609 C 29.83514 8.8435324 32.121644 7.9648438 34.773438 7.9648438 C 35.739869 7.9648438 36.747943 8.1347758 37.796875 8.4765625 C 38.97545 8.8654923 40.147664 9.4854106 41.314453 10.333984 C 42.7641 11.394702 43.488281 12.402776 43.488281 13.357422 C 43.488281 13.828852 43.258473 14.188046 42.798828 14.435547 L 29.398438 21.630859 C 30.848085 23.12765 32.640217 23.875 34.773438 23.875 C 37.048087 23.875 38.892351 23.08515 40.306641 21.505859 C 40.471641 21.293716 40.718827 20.969276 41.048828 20.533203 C 41.378829 20.09713 41.738023 19.880859 42.126953 19.880859 C 42.480525 19.880859 42.799173 20.016037 43.082031 20.287109 C 43.364889 20.546396 43.505859 20.851506 43.505859 21.205078 C 43.505859 21.429007 43.436351 21.672354 43.294922 21.931641 C 42.481705 23.345931 41.261199 24.469853 39.634766 25.306641 C 38.268978 26.026025 36.833341 26.374025 35.347656 26.457031 L 47.908203 26.457031 L 47.908203 9.2910156 C 47.908203 8.4070844 48.350444 7.9648438 49.234375 7.9648438 C 49.882591 7.9648437 50.290077 8.246784 50.455078 8.8125 C 50.525793 9.0600007 50.560547 9.6142498 50.560547 10.474609 C 52.163408 8.801033 54.079133 7.9648438 56.306641 7.9648438 C 58.722719 7.9648437 60.742707 8.9188333 62.369141 10.828125 C 63.924859 12.666702 64.703125 14.806443 64.703125 17.246094 C 64.703125 19.685744 63.924859 21.825486 62.369141 23.664062 C 60.82241 25.479791 58.893693 26.368053 56.632812 26.457031 L 70.238281 26.457031 C 69.531922 26.373218 69.123047 25.991345 69.123047 25.201172 L 69.123047 1.3359375 C 69.123047 0.45200628 69.565288 0.009765625 70.449219 0.009765625 C 71.33315 0.009765625 71.775391 0.45200628 71.775391 1.3359375 L 71.775391 9.9980469 C 73.283967 8.6426856 75.050976 7.9648437 77.078125 7.9648438 C 79.270274 7.9648438 81.1435 8.7431091 82.699219 10.298828 C 84.254938 11.854547 85.033203 13.727772 85.033203 15.919922 L 85.033203 25.201172 C 85.033203 25.99151 84.624624 26.373348 83.917969 26.457031 L 87.816406 26.457031 L 87.816406 0.001953125 L 20.910156 0.001953125 z M 83.917969 26.457031 L 83.496094 26.457031 C 83.579907 26.466976 83.613273 26.527344 83.707031 26.527344 C 83.800624 26.527344 83.834286 26.466941 83.917969 26.457031 z M 83.496094 26.457031 C 82.789734 26.373218 82.382812 25.991345 82.382812 25.201172 L 82.382812 15.919922 C 82.382812 14.458489 81.863318 13.209021 80.826172 12.171875 C 79.789026 11.134729 78.539558 10.617188 77.078125 10.617188 C 75.616692 10.617188 74.367224 11.134729 73.330078 12.171875 C 72.292932 13.209021 71.775391 14.458489 71.775391 15.919922 L 71.775391 25.201172 C 71.775391 25.991345 71.366516 26.373218 70.660156 26.457031 L 83.496094 26.457031 z M 70.660156 26.457031 L 70.238281 26.457031 C 70.322094 26.466976 70.355461 26.527344 70.449219 26.527344 C 70.542977 26.527344 70.576343 26.466976 70.660156 26.457031 z M 56.632812 26.457031 L 55.958984 26.457031 C 56.081647 26.462269 56.182023 26.527344 56.306641 26.527344 C 56.425039 26.527344 56.516311 26.461616 56.632812 26.457031 z M 55.958984 26.457031 C 53.889086 26.368641 52.073736 25.597527 50.560547 24.017578 L 50.560547 26.457031 L 55.958984 26.457031 z M 50.560547 26.457031 L 47.908203 26.457031 L 47.908203 33.15625 C 47.908203 34.040181 48.350444 34.482422 49.234375 34.482422 C 50.118306 34.482422 50.560547 34.040181 50.560547 33.15625 L 50.560547 26.457031 z M 35.347656 26.457031 L 34.376953 26.457031 C 34.51681 26.462063 34.631487 26.527344 34.773438 26.527344 C 34.969262 26.527344 35.153871 26.467858 35.347656 26.457031 z M 21.160156 26.457031 L 4.8300781 26.457031 C 4.9373927 26.472579 4.9858904 26.544922 5.109375 26.544922 L 20.949219 26.527344 C 21.042977 26.527344 21.076343 26.466976 21.160156 26.457031 z M 4.8300781 26.457031 C 4.12824 26.355347 3.7055351 25.985449 3.6953125 25.21875 C 3.6953125 24.959464 3.8189055 24.640816 4.0664062 24.263672 L 18.492188 2.6601562 L 5.0390625 2.6601562 C 4.1551312 2.6601562 3.7128906 2.2198688 3.7128906 1.3359375 C 3.7128906 0.45200628 4.1551312 0.009765625 5.0390625 0.009765625 L 12.078125 0.001953125 L 0.001953125 0.001953125 L 0.001953125 26.457031 L 4.8300781 26.457031 z M 136.30078 0.009765625 C 135.41685 0.009765625 134.97461 0.45200628 134.97461 1.3359375 L 134.97461 7.9648438 L 132.32422 7.9648438 C 131.44029 7.9648438 130.99805 8.4070844 130.99805 9.2910156 C 130.99805 10.174947 131.44029 10.617188 132.32422 10.617188 L 134.97461 10.617188 L 134.97461 18.572266 C 134.97461 20.764416 135.75287 22.637641 137.30859 24.193359 C 138.86431 25.749079 140.73949 26.527344 142.93164 26.527344 C 144.13379 26.527344 145.32338 26.24345 146.50195 25.677734 C 147.73946 25.076661 148.67028 24.300349 149.29492 23.345703 C 149.4835 23.051059 149.57813 22.778751 149.57812 22.53125 C 149.57813 22.177678 149.43716 21.872568 149.1543 21.613281 C 148.87144 21.342209 148.55279 21.205078 148.19922 21.205078 C 147.90457 21.205078 147.52221 21.434887 147.05078 21.894531 C 146.37899 22.530962 145.86529 22.961618 145.51172 23.185547 C 144.781 23.645192 143.92164 23.875 142.93164 23.875 C 141.47021 23.875 140.22074 23.357458 139.18359 22.320312 C 138.14645 21.283166 137.62695 20.033699 137.62695 18.572266 L 137.62695 10.617188 L 144.25781 10.617188 C 145.14175 10.617188 145.58203 10.174947 145.58203 9.2910156 C 145.58203 8.4070844 145.14175 7.9648438 144.25781 7.9648438 L 137.62695 7.9648438 L 137.62695 1.3359375 C 137.62695 0.45200628 137.18471 0.009765625 136.30078 0.009765625 z M 167.68164 0.009765625 C 166.79771 0.009765625 166.35547 0.45200628 166.35547 1.3359375 L 166.35547 10.474609 C 164.7526 8.801033 162.83688 7.9648438 160.60938 7.9648438 C 158.1933 7.9648438 156.17136 8.9188333 154.54492 10.828125 C 152.98921 12.666702 152.21289 14.806443 152.21289 17.246094 C 152.21289 19.697529 152.98921 21.837271 154.54492 23.664062 C 156.17136 25.573354 158.1933 26.527344 160.60938 26.527344 C 162.83688 26.527344 164.7526 25.691155 166.35547 24.017578 C 166.35547 24.877937 166.39022 25.430233 166.46094 25.677734 C 166.62594 26.24345 167.03343 26.527344 167.68164 26.527344 C 168.56557 26.527344 169.00781 26.085103 169.00781 25.201172 L 169.00781 1.3359375 C 169.00781 0.45200628 168.56557 0.009765625 167.68164 0.009765625 z M 199.94336 0.009765625 C 199.05943 0.009765625 198.61914 0.45200628 198.61914 1.3359375 L 198.61914 7.9648438 L 195.9668 7.9648438 C 195.08286 7.9648438 194.64062 8.4070844 194.64062 9.2910156 C 194.64062 10.174947 195.08286 10.617188 195.9668 10.617188 L 198.61914 10.617188 L 198.61914 18.572266 C 198.61914 20.764416 199.39545 22.637641 200.95117 24.193359 C 202.50689 25.749079 204.38207 26.527344 206.57422 26.527344 C 207.77637 26.527344 208.96595 26.24345 210.14453 25.677734 C 211.38203 25.076661 212.31285 24.300349 212.9375 23.345703 C 213.12607 23.051059 213.2207 22.778751 213.2207 22.53125 C 213.2207 22.177678 213.07973 21.872568 212.79688 21.613281 C 212.51402 21.342209 212.19537 21.205078 211.8418 21.205078 C 211.54716 21.205078 211.16479 21.434887 210.69336 21.894531 C 210.02157 22.530962 209.50787 22.961618 209.1543 23.185547 C 208.42358 23.645192 207.56423 23.875 206.57422 23.875 C 205.11279 23.875 203.86332 23.357458 202.82617 22.320312 C 201.78903 21.283166 201.26953 20.033699 201.26953 18.572266 L 201.26953 10.617188 L 207.90039 10.617188 C 208.78432 10.617188 209.22461 10.174947 209.22461 9.2910156 C 209.22461 8.4070844 208.78432 7.9648438 207.90039 7.9648438 L 201.26953 7.9648438 L 201.26953 1.3359375 C 201.26953 0.45200628 200.82729 0.009765625 199.94336 0.009765625 z M 218.06445 0.009765625 C 217.18052 0.009765625 216.73828 0.45200628 216.73828 1.3359375 L 216.73828 17.246094 C 216.73828 19.756458 217.58221 21.91937 219.26758 23.734375 C 220.9883 25.596524 223.09133 26.527344 225.57812 26.527344 C 228.06492 26.527344 230.16796 25.596524 231.88867 23.734375 C 233.57404 21.91937 234.41797 19.756458 234.41797 17.246094 C 234.41797 14.735728 233.57404 12.572818 231.88867 10.757812 C 230.16796 8.8956642 228.06492 7.9648437 225.57812 7.9648438 C 223.16205 7.9648438 221.09956 8.8493252 219.39062 10.617188 L 219.39062 1.3359375 C 219.39062 0.45200628 218.94839 0.009765625 218.06445 0.009765625 z M 246.34961 0.009765625 C 245.79568 0.009765625 245.31868 0.20865951 244.91797 0.609375 C 244.52904 0.99830473 244.33594 1.4714604 244.33594 2.0253906 C 244.33594 2.5793209 244.52904 3.044731 244.91797 3.421875 C 245.31868 3.7990189 245.79568 3.9863281 246.34961 3.9863281 C 246.90354 3.9863281 247.3767 3.7990189 247.76562 3.421875 C 248.16634 3.044731 248.36523 2.5793209 248.36523 2.0253906 C 248.36523 1.4714604 248.16635 0.99830473 247.76562 0.609375 C 247.3767 0.20865951 246.90354 0.009765625 246.34961 0.009765625 z M 275.48438 7.9472656 L 259.60938 7.9648438 C 258.72544 7.9648438 258.2832 8.4070844 258.2832 9.2910156 C 258.2832 10.174947 258.72544 10.617188 259.60938 10.617188 L 272.33789 10.617188 L 258.84961 24.087891 C 258.46068 24.476821 258.26562 24.841807 258.26562 25.183594 C 258.25384 26.091096 258.71346 26.544922 259.64453 26.544922 L 275.51953 26.527344 C 276.40346 26.527344 276.8457 26.085103 276.8457 25.201172 C 276.8457 24.317241 276.40346 23.875 275.51953 23.875 L 262.79102 23.875 L 276.28125 10.404297 C 276.67018 10.015367 276.86328 9.6503805 276.86328 9.3085938 C 276.86328 8.4010908 276.40366 7.9472656 275.48438 7.9472656 z M 91.664062 7.9648438 C 90.780131 7.9648438 90.337891 8.4070844 90.337891 9.2910156 L 90.337891 25.201172 C 90.337891 26.085103 90.780131 26.527344 91.664062 26.527344 C 92.547994 26.527344 92.988281 26.085103 92.988281 25.201172 L 92.988281 15.919922 C 92.988281 14.458489 93.507776 13.209021 94.544922 12.171875 C 95.582068 11.134729 96.831536 10.617188 98.292969 10.617188 C 99.754399 10.617188 101.00387 11.134729 102.04102 12.171875 C 103.07816 13.209021 103.5957 14.458489 103.5957 15.919922 L 103.5957 25.201172 C 103.5957 26.085103 104.03794 26.527344 104.92188 26.527344 C 105.80581 26.527344 106.24805 26.085103 106.24805 25.201172 L 106.24805 15.919922 C 106.24805 13.727772 105.46978 11.854547 103.91406 10.298828 C 102.35834 8.7431091 100.48512 7.9648438 98.292969 7.9648438 C 96.26582 7.9648437 94.496857 8.6426856 92.988281 9.9980469 C 93.000067 8.6426856 92.559779 7.9648437 91.664062 7.9648438 z M 119.63086 7.9648438 C 116.97907 7.9648437 114.69256 8.8435324 112.77148 10.599609 C 110.77969 12.402829 109.7832 14.617871 109.7832 17.246094 C 109.7832 19.86253 110.77969 22.077573 112.77148 23.892578 C 114.69256 25.648655 116.97907 26.527344 119.63086 26.527344 C 121.32801 26.527344 122.94825 26.119858 124.49219 25.306641 C 126.11862 24.469853 127.33913 23.345931 128.15234 21.931641 C 128.29378 21.672354 128.36328 21.429007 128.36328 21.205078 C 128.36328 20.851506 128.22231 20.546396 127.93945 20.287109 C 127.65659 20.016037 127.33795 19.880859 126.98438 19.880859 C 126.59545 19.880859 126.23625 20.09713 125.90625 20.533203 C 125.57625 20.969276 125.32906 21.293716 125.16406 21.505859 C 123.74977 23.08515 121.90551 23.875 119.63086 23.875 C 117.49764 23.875 115.70551 23.12765 114.25586 21.630859 L 127.65625 14.435547 C 128.1159 14.188046 128.3457 13.828852 128.3457 13.357422 C 128.3457 12.402776 127.62152 11.394702 126.17188 10.333984 C 125.00508 9.4854106 123.83287 8.8654923 122.6543 8.4765625 C 121.60536 8.1347758 120.59729 7.9648438 119.63086 7.9648438 z M 182.70703 7.9648438 C 180.14952 7.9648437 177.96344 8.8724943 176.14844 10.6875 C 174.33343 12.502505 173.42578 14.688586 173.42578 17.246094 C 173.42578 19.803601 174.33343 21.989682 176.14844 23.804688 C 177.96344 25.619694 180.14952 26.527344 182.70703 26.527344 C 185.26454 26.527344 187.45062 25.619694 189.26562 23.804688 C 191.08063 21.989682 191.98828 19.803601 191.98828 17.246094 C 191.98828 14.688586 191.08063 12.502505 189.26562 10.6875 C 187.45062 8.8724943 185.26454 7.9648438 182.70703 7.9648438 z M 241.04688 7.9648438 C 240.16294 7.9648438 239.7207 8.4070844 239.7207 9.2910156 C 239.7207 10.174947 240.16294 10.617188 241.04688 10.617188 L 245.02539 10.617188 L 245.02539 25.201172 C 245.02539 26.085103 245.46568 26.527344 246.34961 26.527344 L 251.6543 26.527344 C 252.53823 26.527344 252.98047 26.085103 252.98047 25.201172 C 252.98047 24.317241 252.53823 23.875 251.6543 23.875 L 247.67578 23.875 L 247.67578 9.2910156 C 247.67578 8.4070844 247.24129 7.9648438 246.36914 7.9648438 L 241.04688 7.9648438 z M 34.773438 10.617188 C 32.864146 10.617188 31.203352 11.235152 29.789062 12.472656 C 28.315843 13.769089 27.578125 15.360374 27.578125 17.246094 C 27.578125 18.000382 27.70751 18.71877 27.966797 19.402344 L 40.183594 12.861328 C 38.745732 11.364537 36.942015 10.617187 34.773438 10.617188 z M 56.306641 10.617188 C 54.633064 10.617188 53.229088 11.323991 52.097656 12.738281 C 51.06051 14.034714 50.548761 15.53716 50.560547 17.246094 C 50.54876 18.966813 51.06051 20.46926 52.097656 21.753906 C 53.217302 23.168196 54.621278 23.875 56.306641 23.875 C 57.980217 23.875 59.376447 23.168196 60.496094 21.753906 C 61.53324 20.46926 62.050781 18.966813 62.050781 17.246094 C 62.050781 15.525374 61.53324 14.022928 60.496094 12.738281 C 59.376447 11.323991 57.980217 10.617187 56.306641 10.617188 z M 119.63086 10.617188 C 121.79943 10.617188 123.60315 11.364537 125.04102 12.861328 L 112.82422 19.402344 C 112.56493 18.71877 112.43555 18.000382 112.43555 17.246094 C 112.43555 15.360374 113.17132 13.769089 114.64453 12.472656 C 116.05882 11.235152 117.72157 10.617188 119.63086 10.617188 z M 160.60938 10.617188 C 162.29474 10.617187 163.69677 11.323991 164.81641 12.738281 C 165.85357 14.022928 166.36727 15.525374 166.35547 17.246094 C 166.36725 18.966813 165.85355 20.46926 164.81641 21.753906 C 163.68498 23.168196 162.28295 23.875 160.60938 23.875 C 158.9358 23.875 157.53957 23.168196 156.41992 21.753906 C 155.38278 20.46926 154.86328 18.966813 154.86328 17.246094 C 154.86328 15.53716 155.38278 14.034714 156.41992 12.738281 C 157.53957 11.323991 158.9358 10.617188 160.60938 10.617188 z M 182.70703 10.617188 C 184.53382 10.617188 186.09614 11.264114 187.39258 12.560547 C 188.68901 13.85698 189.33789 15.419302 189.33789 17.246094 C 189.33789 19.072884 188.68901 20.635208 187.39258 21.931641 C 186.09614 23.228073 184.53382 23.875 182.70703 23.875 C 180.88024 23.875 179.31987 23.228073 178.02344 21.931641 C 176.727 20.635208 176.07812 19.072884 176.07812 17.246094 C 176.07813 15.419302 176.727 13.85698 178.02344 12.560547 C 179.31987 11.264114 180.88024 10.617188 182.70703 10.617188 z M 225.57812 10.617188 C 227.34598 10.617187 228.83106 11.287284 230.0332 12.630859 C 231.1882 13.927292 231.76562 15.466445 231.76562 17.246094 C 231.76562 19.025742 231.1882 20.562942 230.0332 21.859375 C 228.81927 23.20295 227.3342 23.875 225.57812 23.875 C 223.82205 23.875 222.34277 23.20295 221.14062 21.859375 C 219.97384 20.562942 219.39062 19.025742 219.39062 17.246094 C 219.40241 15.466445 219.98563 13.927292 221.14062 12.630859 C 222.34277 11.287284 223.82204 10.617187 225.57812 10.617188 z "
         d="m 20.878906,-0.0078125 -8.800781,0.00976563 h 8.832031 c -0.01369,-1.9201e-4 -0.01735,-0.00976563 -0.03125,-0.00976563 z m 0.03125,0.00976563 c 0.915273,0.0128356 1.382813,0.44550261 1.382813,1.31640627 0,0.2592864 -0.123593,0.575981 -0.371094,0.953125 L 7.4960938,23.875 H 20.949219 c 0.883931,0 1.326172,0.442241 1.326172,1.326172 0,0.790173 -0.408875,1.172046 -1.115235,1.255859 h 13.216797 c -2.472822,-0.08897 -4.644649,-0.902378 -6.462891,-2.564453 -1.991791,-1.815005 -2.988281,-4.030048 -2.988281,-6.646484 0,-2.628223 0.99649,-4.843265 2.988281,-6.646485 1.921078,-1.7560766 4.207582,-2.6347652 6.859376,-2.6347652 0.966431,0 1.974505,0.169932 3.023437,0.5117187 1.178575,0.3889298 2.350789,1.0088481 3.517578,1.8574215 1.449647,1.060718 2.173828,2.068792 2.173828,3.023438 0,0.47143 -0.229808,0.830624 -0.689453,1.078125 l -13.40039,7.195312 c 1.449647,1.496791 3.241779,2.244141 5.375,2.244141 2.274649,0 4.118913,-0.78985 5.533203,-2.369141 0.165,-0.212143 0.412186,-0.536583 0.742187,-0.972656 0.330001,-0.436073 0.689195,-0.652344 1.078125,-0.652344 0.353572,0 0.67222,0.135178 0.955078,0.40625 0.282858,0.259287 0.423828,0.564397 0.423828,0.917969 0,0.223929 -0.06951,0.467276 -0.210937,0.726563 -0.813217,1.41429 -2.033723,2.538212 -3.660156,3.375 -1.365788,0.719384 -2.801425,1.067384 -4.28711,1.15039 H 47.908203 V 9.2910156 c 0,-0.8839312 0.442241,-1.3261718 1.326172,-1.3261718 0.648216,-10e-8 1.055702,0.2819402 1.220703,0.8476562 0.07071,0.2475007 0.105469,0.8017498 0.105469,1.662109 1.602861,-1.673576 3.518586,-2.5097652 5.746094,-2.5097652 2.416078,-10e-8 4.436066,0.9539895 6.0625,2.8632812 1.555718,1.838577 2.333984,3.978318 2.333984,6.417969 0,2.43965 -0.778266,4.579392 -2.333984,6.417968 -1.546731,1.815729 -3.475448,2.703991 -5.736329,2.792969 h 13.605469 c -0.706359,-0.08381 -1.115234,-0.465686 -1.115234,-1.255859 V 1.3359375 c 0,-0.88393122 0.442241,-1.32617187 1.326172,-1.32617187 0.883931,0 1.326172,0.44224065 1.326172,1.32617187 v 8.6621094 c 1.508576,-1.3553613 3.275585,-2.0332032 5.302734,-2.0332031 2.192149,0 4.065375,0.7782653 5.621094,2.3339842 1.555719,1.555719 2.333984,3.428944 2.333984,5.621094 v 9.28125 c 0,0.790338 -0.408579,1.172176 -1.115234,1.255859 h 3.898437 V 0.00195313 Z M 83.917969,26.457031 h -0.421875 c 0.08381,0.0099 0.117179,0.07031 0.210937,0.07031 0.09359,0 0.127255,-0.0604 0.210938,-0.07031 z m -0.421875,0 c -0.70636,-0.08381 -1.113282,-0.465686 -1.113282,-1.255859 v -9.28125 c 0,-1.461433 -0.519494,-2.710901 -1.55664,-3.748047 -1.037146,-1.037146 -2.286614,-1.554687 -3.748047,-1.554687 -1.461433,0 -2.710901,0.517541 -3.748047,1.554687 -1.037146,1.037146 -1.554687,2.286614 -1.554687,3.748047 v 9.28125 c 0,0.790173 -0.408875,1.172046 -1.115235,1.255859 z m -12.835938,0 h -0.421875 c 0.08381,0.0099 0.11718,0.07031 0.210938,0.07031 0.09376,0 0.127124,-0.06037 0.210937,-0.07031 z m -14.027344,0 h -0.673828 c 0.122663,0.0052 0.223039,0.07031 0.347657,0.07031 0.118398,0 0.20967,-0.06573 0.326171,-0.07031 z m -0.673828,0 c -2.069898,-0.08839 -3.885248,-0.859504 -5.398437,-2.439453 v 2.439453 z m -5.398437,0 h -2.652344 v 6.699219 c 0,0.883931 0.442241,1.326172 1.326172,1.326172 0.883931,0 1.326172,-0.442241 1.326172,-1.326172 z m -15.212891,0 h -0.970703 c 0.139857,0.005 0.254534,0.07031 0.396485,0.07031 0.195824,0 0.380433,-0.05949 0.574218,-0.07031 z m -14.1875,0 H 4.8300781 c 0.1073146,0.01555 0.1558123,0.08789 0.2792969,0.08789 l 15.839844,-0.01758 c 0.09376,0 0.127124,-0.06037 0.210937,-0.07031 z m -16.3300779,0 C 4.12824,26.355347 3.7055351,25.985449 3.6953125,25.21875 c 0,-0.259286 0.123593,-0.577934 0.3710937,-0.955078 L 18.492188,2.6601562 H 5.0390625 c -0.8839313,0 -1.3261719,-0.4402874 -1.3261719,-1.3242187 0,-0.88393122 0.4422406,-1.32617187 1.3261719,-1.32617187 L 12.078125,0.00195313 H 0.00195313 V 26.457031 Z M 136.30078,0.00976563 c -0.88393,0 -1.32617,0.44224065 -1.32617,1.32617187 v 6.6289063 h -2.65039 c -0.88393,0 -1.32617,0.4422406 -1.32617,1.3261718 0,0.8839314 0.44224,1.3261724 1.32617,1.3261724 h 2.65039 v 7.955078 c 0,2.19215 0.77826,4.065375 2.33398,5.621093 1.55572,1.55572 3.4309,2.333985 5.62305,2.333985 1.20215,0 2.39174,-0.283894 3.57031,-0.84961 1.23751,-0.601073 2.16833,-1.377385 2.79297,-2.332031 0.18858,-0.294644 0.28321,-0.566952 0.2832,-0.814453 10e-6,-0.353572 -0.14096,-0.658682 -0.42382,-0.917969 -0.28286,-0.271072 -0.60151,-0.408203 -0.95508,-0.408203 -0.29465,0 -0.67701,0.229809 -1.14844,0.689453 -0.67179,0.636431 -1.18549,1.067087 -1.53906,1.291016 -0.73072,0.459645 -1.59008,0.689453 -2.58008,0.689453 -1.46143,0 -2.7109,-0.517542 -3.74805,-1.554688 -1.03714,-1.037146 -1.55664,-2.286613 -1.55664,-3.748046 v -7.955078 h 6.63086 c 0.88394,0 1.32422,-0.442241 1.32422,-1.3261724 0,-0.8839312 -0.44028,-1.3261718 -1.32422,-1.3261718 h -6.63086 V 1.3359375 c 0,-0.88393122 -0.44224,-1.32617187 -1.32617,-1.32617187 z m 31.38086,0 c -0.88393,0 -1.32617,0.44224065 -1.32617,1.32617187 v 9.1386715 c -1.60287,-1.673576 -3.51859,-2.5097652 -5.74609,-2.5097652 -2.41608,0 -4.43802,0.9539895 -6.06446,2.8632812 -1.55571,1.838577 -2.33203,3.978318 -2.33203,6.417969 0,2.451435 0.77632,4.591177 2.33203,6.417968 1.62644,1.909292 3.64838,2.863282 6.06446,2.863282 2.2275,0 4.14322,-0.836189 5.74609,-2.509766 0,0.860359 0.0348,1.412655 0.10547,1.660156 0.165,0.565716 0.57249,0.84961 1.2207,0.84961 0.88393,0 1.32617,-0.442241 1.32617,-1.326172 V 1.3359375 c 0,-0.88393122 -0.44224,-1.32617187 -1.32617,-1.32617187 z m 32.26172,0 c -0.88393,0 -1.32422,0.44224065 -1.32422,1.32617187 v 6.6289063 h -2.65234 c -0.88394,0 -1.32618,0.4422406 -1.32618,1.3261718 0,0.8839314 0.44224,1.3261724 1.32618,1.3261724 h 2.65234 v 7.955078 c 0,2.19215 0.77631,4.065375 2.33203,5.621093 1.55572,1.55572 3.4309,2.333985 5.62305,2.333985 1.20215,0 2.39173,-0.283894 3.57031,-0.84961 1.2375,-0.601073 2.16832,-1.377385 2.79297,-2.332031 0.18857,-0.294644 0.2832,-0.566952 0.2832,-0.814453 0,-0.353572 -0.14097,-0.658682 -0.42382,-0.917969 -0.28286,-0.271072 -0.60151,-0.408203 -0.95508,-0.408203 -0.29464,0 -0.67701,0.229809 -1.14844,0.689453 -0.67179,0.636431 -1.18549,1.067087 -1.53906,1.291016 -0.73072,0.459645 -1.59007,0.689453 -2.58008,0.689453 -1.46143,0 -2.7109,-0.517542 -3.74805,-1.554688 -1.03714,-1.037146 -1.55664,-2.286613 -1.55664,-3.748046 v -7.955078 h 6.63086 c 0.88393,0 1.32422,-0.442241 1.32422,-1.3261724 0,-0.8839312 -0.44029,-1.3261718 -1.32422,-1.3261718 h -6.63086 V 1.3359375 c 0,-0.88393122 -0.44224,-1.32617187 -1.32617,-1.32617187 z m 18.12109,0 c -0.88393,0 -1.32617,0.44224065 -1.32617,1.32617187 V 17.246094 c 0,2.510364 0.84393,4.673276 2.5293,6.488281 1.72072,1.862149 3.82375,2.792969 6.31054,2.792969 2.4868,0 4.58984,-0.93082 6.31055,-2.792969 1.68537,-1.815005 2.5293,-3.977917 2.5293,-6.488281 0,-2.510366 -0.84393,-4.673276 -2.5293,-6.488282 -1.72071,-1.8621478 -3.82375,-2.7929683 -6.31055,-2.7929682 -2.41607,0 -4.47856,0.8844814 -6.1875,2.6523442 V 1.3359375 c 0,-0.88393122 -0.44223,-1.32617187 -1.32617,-1.32617187 z m 28.28516,0 c -0.55393,0 -1.03093,0.19889388 -1.43164,0.59960937 -0.38893,0.38892973 -0.58203,0.8620854 -0.58203,1.4160156 0,0.5539303 0.1931,1.0193404 0.58203,1.3964844 0.40071,0.3771439 0.87771,0.5644531 1.43164,0.5644531 0.55393,0 1.02709,-0.1873092 1.41601,-0.5644531 0.40072,-0.377144 0.59961,-0.8425541 0.59961,-1.3964844 0,-0.5539302 -0.19888,-1.02708587 -0.59961,-1.4160156 -0.38892,-0.40071549 -0.86208,-0.59960937 -1.41601,-0.59960937 z m 29.13477,7.93749997 -15.875,0.017578 c -0.88394,0 -1.32618,0.4422406 -1.32618,1.3261718 0,0.8839314 0.44224,1.3261724 1.32618,1.3261724 h 12.72851 l -13.48828,13.470703 c -0.38893,0.38893 -0.58399,0.753916 -0.58399,1.095703 -0.0118,0.907502 0.44784,1.361328 1.37891,1.361328 l 15.875,-0.01758 c 0.88393,0 1.32617,-0.442241 1.32617,-1.326172 0,-0.883931 -0.44224,-1.326172 -1.32617,-1.326172 h -12.72851 l 13.49023,-13.470703 c 0.38893,-0.38893 0.58203,-0.7539165 0.58203,-1.0957032 0,-0.907503 -0.45962,-1.3613282 -1.3789,-1.3613282 z M 91.664062,7.9648438 c -0.883931,0 -1.326171,0.4422406 -1.326171,1.3261718 V 25.201172 c 0,0.883931 0.44224,1.326172 1.326171,1.326172 0.883932,0 1.324219,-0.442241 1.324219,-1.326172 v -9.28125 c 0,-1.461433 0.519495,-2.710901 1.556641,-3.748047 1.037146,-1.037146 2.286614,-1.554687 3.748047,-1.554687 1.46143,0 2.710901,0.517541 3.748051,1.554687 1.03714,1.037146 1.55468,2.286614 1.55468,3.748047 v 9.28125 c 0,0.883931 0.44224,1.326172 1.32618,1.326172 0.88393,0 1.32617,-0.442241 1.32617,-1.326172 v -9.28125 c 0,-2.19215 -0.77827,-4.065375 -2.33399,-5.621094 -1.55572,-1.5557189 -3.42894,-2.3339842 -5.621091,-2.3339842 -2.027149,-10e-8 -3.796112,0.6778418 -5.304688,2.0332031 0.01179,-1.3553613 -0.428502,-2.0332032 -1.324219,-2.0332031 z m 27.966798,0 c -2.65179,-10e-8 -4.9383,0.8786886 -6.85938,2.6347652 -1.99179,1.80322 -2.98828,4.018262 -2.98828,6.646485 0,2.616436 0.99649,4.831479 2.98828,6.646484 1.92108,1.756077 4.20759,2.634766 6.85938,2.634766 1.69715,0 3.31739,-0.407486 4.86133,-1.220703 1.62643,-0.836788 2.84694,-1.96071 3.66015,-3.375 0.14144,-0.259287 0.21094,-0.502634 0.21094,-0.726563 0,-0.353572 -0.14097,-0.658682 -0.42383,-0.917969 -0.28286,-0.271072 -0.6015,-0.40625 -0.95507,-0.40625 -0.38893,0 -0.74813,0.216271 -1.07813,0.652344 -0.33,0.436073 -0.57719,0.760513 -0.74219,0.972656 -1.41429,1.579291 -3.25855,2.369141 -5.5332,2.369141 -2.13322,0 -3.92535,-0.74735 -5.375,-2.244141 l 13.40039,-7.195312 c 0.45965,-0.247501 0.68945,-0.606695 0.68945,-1.078125 0,-0.954646 -0.72418,-1.96272 -2.17382,-3.023438 -1.1668,-0.8485734 -2.33901,-1.4684917 -3.51758,-1.8574215 -1.04894,-0.3417867 -2.05701,-0.5117187 -3.02344,-0.5117187 z m 63.07617,0 c -2.55751,-10e-8 -4.74359,0.9076505 -6.55859,2.7226562 -1.81501,1.815005 -2.72266,4.001086 -2.72266,6.558594 0,2.557507 0.90765,4.743588 2.72266,6.558594 1.815,1.815006 4.00108,2.722656 6.55859,2.722656 2.55751,0 4.74359,-0.90765 6.55859,-2.722656 1.81501,-1.815006 2.72266,-4.001087 2.72266,-6.558594 0,-2.557508 -0.90765,-4.743589 -2.72266,-6.558594 -1.815,-1.8150057 -4.00108,-2.7226562 -6.55859,-2.7226562 z m 58.33985,0 c -0.88394,0 -1.32618,0.4422406 -1.32618,1.3261718 0,0.8839314 0.44224,1.3261724 1.32618,1.3261724 h 3.97851 v 14.583984 c 0,0.883931 0.44029,1.326172 1.32422,1.326172 h 5.30469 c 0.88393,0 1.32617,-0.442241 1.32617,-1.326172 0,-0.883931 -0.44224,-1.326172 -1.32617,-1.326172 h -3.97852 V 9.2910156 c 0,-0.8839312 -0.43449,-1.3261718 -1.30664,-1.3261718 z M 34.773438,10.617188 c -1.909292,0 -3.570086,0.617964 -4.984376,1.855468 -1.473219,1.296433 -2.210937,2.887718 -2.210937,4.773438 0,0.754288 0.129385,1.472676 0.388672,2.15625 l 12.216797,-6.541016 c -1.437862,-1.496791 -3.241579,-2.244141 -5.410156,-2.24414 z m 21.533203,0 c -1.673577,0 -3.077553,0.706803 -4.208985,2.121093 -1.037146,1.296433 -1.548895,2.798879 -1.537109,4.507813 -0.01179,1.720719 0.499963,3.223166 1.537109,4.507812 1.119646,1.41429 2.523622,2.121094 4.208985,2.121094 1.673576,0 3.069806,-0.706804 4.189453,-2.121094 1.037146,-1.284646 1.554687,-2.787093 1.554687,-4.507812 0,-1.72072 -0.517541,-3.223166 -1.554687,-4.507813 -1.119647,-1.41429 -2.515877,-2.121094 -4.189453,-2.121093 z m 63.324219,0 c 2.16857,0 3.97229,0.747349 5.41016,2.24414 l -12.2168,6.541016 c -0.25929,-0.683574 -0.38867,-1.401962 -0.38867,-2.15625 0,-1.88572 0.73577,-3.477005 2.20898,-4.773438 1.41429,-1.237504 3.07704,-1.855468 4.98633,-1.855468 z m 40.97852,0 c 1.68536,-1e-6 3.08739,0.706803 4.20703,2.121093 1.03716,1.284647 1.55086,2.787093 1.53906,4.507813 0.0118,1.720719 -0.50192,3.223166 -1.53906,4.507812 -1.13143,1.41429 -2.53346,2.121094 -4.20703,2.121094 -1.67358,0 -3.06981,-0.706804 -4.18946,-2.121094 -1.03714,-1.284646 -1.55664,-2.787093 -1.55664,-4.507812 0,-1.708934 0.5195,-3.21138 1.55664,-4.507813 1.11965,-1.41429 2.51588,-2.121093 4.18946,-2.121093 z m 22.09765,0 c 1.82679,0 3.38911,0.646926 4.68555,1.943359 1.29643,1.296433 1.94531,2.858755 1.94531,4.685547 0,1.82679 -0.64888,3.389114 -1.94531,4.685547 -1.29644,1.296432 -2.85876,1.943359 -4.68555,1.943359 -1.82679,0 -3.38716,-0.646927 -4.68359,-1.943359 -1.29644,-1.296433 -1.94532,-2.858757 -1.94532,-4.685547 10e-6,-1.826792 0.64888,-3.389114 1.94532,-4.685547 1.29643,-1.296433 2.8568,-1.943359 4.68359,-1.943359 z m 42.87109,0 c 1.76786,-1e-6 3.25294,0.670096 4.45508,2.013671 1.155,1.296433 1.73242,2.835586 1.73242,4.615235 0,1.779648 -0.57742,3.316848 -1.73242,4.613281 -1.21393,1.343575 -2.699,2.015625 -4.45508,2.015625 -1.75607,0 -3.23535,-0.67205 -4.4375,-2.015625 -1.16678,-1.296433 -1.75,-2.833633 -1.75,-4.613281 0.0118,-1.779649 0.59501,-3.318802 1.75,-4.615235 1.20215,-1.343575 2.68142,-2.013672 4.4375,-2.013671 z" />
    </g>
  </g>
</svg>
